/* XPM */
static char * GetChange_xpm[] = {
"16 16 64 1",
" 	c None",
".	c #F5FCFC",
"+	c #EFF9F9",
"@	c #EAF6F6",
"#	c #E5F4F4",
"$	c #E2F3F3",
"%	c #E1F2F2",
"&	c #B1C2C2",
"*	c #F3FAFA",
"=	c #ECF4F4",
"-	c #E7F1F1",
";	c #DFECEC",
">	c #D9E8E8",
",	c #D5E6E6",
"'	c #D4E5E5",
")	c #A5B6B6",
"!	c #FFFFFF",
"~	c #F4FAFA",
"{	c #EEF5F5",
"]	c #93A4A4",
"^	c #F6FBFB",
"/	c #F0F6F6",
"(	c #F7FCFC",
"_	c #BAC8C8",
":	c #ABBBBB",
"<	c #D5DFDF",
"[	c #F8FCFC",
"}	c #9FB0B0",
"|	c #B3C2C2",
"1	c #DBE4E4",
"2	c #97A8A8",
"3	c #E5E9E9",
"4	c #FCFDFD",
"5	c #C5D0D0",
"6	c #E3ECEC",
"7	c #FCFEFE",
"8	c #F8FBFB",
"9	c #F3F8F8",
"0	c #EAF7F7",
"a	c #173939",
"b	c #879898",
"c	c #E2E6E6",
"d	c #FDFEFE",
"e	c #C0CACA",
"f	c #E6ECEC",
"g	c #809191",
"h	c #9EABAB",
"i	c #DAE1E1",
"j	c #F4F8F8",
"k	c #F2F7F7",
"l	c #F2FAFA",
"m	c #FEFFFF",
"n	c #9BA8A8",
"o	c #7F8F8F",
"p	c #CCD4D4",
"q	c #F6FAFA",
"r	c #FEFEFE",
"s	c #FBFDFD",
"t	c #F9FCFC",
"u	c #F5FBFB",
"v	c #173838",
"w	c #FAFDFD",
"x	c #F9FEFE",
"y	c #0B2A2A",
"                ",
"   .+@#$%%&     ",
"   *=-;>,')!    ",
"   ~{=-;>,]]]   ",
"   ^/{=-;>,'%   ",
"   (_:<=-;>,%   ",
"   [}!|1=-;>$   ",
"   223456=-;#   ",
" !!!!!789{=-0   ",
" aabbcdef/{=+   ",
"   dg!hijk/{l   ",
"   mnop8qjk/*   ",
"   !r4st8qjku   ",
"   !!r4st8qj^   ",
"  v!!!md7sw[xv  ",
"   yyyyyyyyyy   "};
