/* XPM */
static char * edit_diff_xpm[] = {
"16 16 71 1",
" 	c #8AA4F1",
".	c #6587ED",
"+	c #FFFFFF",
"@	c #4E4E4E",
"#	c #4C4C4C",
"$	c #4B4B4B",
"%	c #4A4A4A",
"&	c #5E80E5",
"*	c #C2CFF8",
"=	c #7894EB",
"-	c #859FEB",
";	c #5476DA",
">	c #5B6992",
",	c #5B6891",
"'	c #5A6890",
")	c #596790",
"!	c #708DE3",
"~	c #7D97E2",
"{	c #486ACE",
"]	c #3C5EC2",
"^	c #59668F",
"/	c #58668F",
"(	c #58658E",
"_	c #54628A",
":	c #536089",
"<	c #526089",
"[	c #515F87",
"}	c #3254B7",
"|	c #294BAF",
"1	c #57658D",
"2	c #56638C",
"3	c #55638C",
"4	c #4F6CC1",
"5	c #5F78C4",
"6	c #2345AB",
"7	c #4B68BE",
"8	c #5A74C0",
"9	c #5972C1",
"0	c #2244AC",
"a	c #3D3D3D",
"b	c #3C3C3C",
"c	c #3A3A3A",
"d	c #393939",
"e	c #454545",
"f	c #434343",
"g	c #424242",
"h	c #404040",
"i	c #CAD3F0",
"j	c #294BBC",
"k	c #5F78CE",
"l	c #CCD4F3",
"m	c #2F51C8",
"n	c #9DAFEC",
"o	c #6781DE",
"p	c #3658D4",
"q	c #7C94E7",
"r	c #48567F",
"s	c #46537C",
"t	c #425078",
"u	c #3E4C75",
"v	c #CAD0E8",
"w	c #3D5FE0",
"x	c #A1B4F3",
"y	c #F0F0F0",
"z	c #E7E7E7",
"A	c #373737",
"B	c #E5E5E5",
"C	c #ABAEB9",
"D	c #4163E9",
"E	c #6376C2",
"F	c #FAFAFA",
" ...... ++@#$%++",
"&******=-+++++++",
";*>,')**!;;;;;;~",
"{**************{",
"]*)^/(****_:<[*]",
"}**************}",
"|*(123**4||||||5",
"6******78+++++++",
"90000009++abcd++",
"++++++++++++++++",
"++efgh++ijjjjjjk",
"+++++++lmn*****m",
"opppppppq*rstu*p",
"+++++++vwx*****w",
"yzbcdABBCDDDDDDE",
"yzBBBBBBBBBBBzyF"};
