/* XPM */
static char * NextChange_xpm[] = {
"16 16 56 1",
" 	c None",
".	c #8CC5F2",
"+	c #BADCF7",
"@	c #63AEEA",
"#	c #B9DBF6",
"$	c #60AAE6",
"%	c #99E5FF",
"&	c #B7D8F3",
"*	c #5CA5E1",
"=	c #88D4FB",
"-	c #97E3FF",
";	c #B5D6F1",
">	c #589FDB",
",	c #7FCBF7",
"'	c #6AB6F1",
")	c #90DCFD",
"!	c #B3D3EE",
"~	c #5399D5",
"{	c #7AC6F5",
"]	c #61ADE9",
"^	c #57A3DF",
"/	c #80CCF1",
"(	c #B1D0EC",
"_	c #4E92CE",
":	c #66B4E5",
"<	c #4492CE",
"[	c #4391CD",
"}	c #6FBCE7",
"|	c #498BC7",
"1	c #50AEE4",
"2	c #3499D9",
"3	c #60BBEA",
"4	c #ADCBE6",
"5	c #4585C1",
"6	c #39B3EF",
"7	c #1DA4EA",
"8	c #4ABDF2",
"9	c #ABC8E3",
"0	c #407FBB",
"a	c #21B8FB",
"b	c #34BFFB",
"c	c #A9C6E1",
"d	c #3C79B5",
"e	c #25BFFF",
"f	c #A7C3DE",
"g	c #3875B1",
"h	c #A5B9CE",
"i	c #5E82A6",
"j	c #8CA2B8",
"k	c #CFCFCF",
"l	c #D7D7D7",
"m	c #DFDFDF",
"n	c #E7E7E7",
"o	c #E9E9E9",
"p	c #E5E5E5",
"q	c #EBEBEB",
"                ",
"    .+          ",
"    @@#         ",
"    $%$&        ",
"    *=-*;       ",
"    >,')>!      ",
"    ~{]^/~(     ",
"    _:<[[}_     ",
"    |1223|4     ",
"    567859      ",
"    0ab0c       ",
"    dedf        ",
"    ggh         ",
"    ijklmn      ",
"    opnq        ",
"                "};
