/* XPM */
static char * NextFile_xpm[] = {
"16 16 39 1",
" 	c None",
".	c #F3FFFF",
"+	c #EEF9F9",
"@	c #F7FFFF",
"#	c #B1C2C2",
"$	c #E2F3F3",
"%	c #E5F4F4",
"&	c #E9F6F6",
"*	c #EFF8F8",
"=	c #EEF6F6",
"-	c #EDF4F4",
";	c #F9FFFF",
">	c #FFFFFF",
",	c #A5B6B6",
"'	c #D9E8E8",
")	c #DFEBEB",
"!	c #E6F0F0",
"~	c #EBF3F3",
"{	c #EFF5F5",
"]	c #F1F7F7",
"^	c #FAFFFF",
"/	c #93A4A4",
"(	c #F3F8F8",
"_	c #F5F9F9",
":	c #FCFFFF",
"<	c #F6FAFA",
"[	c #F8FBFB",
"}	c #FDFFFF",
"|	c #F2FCFC",
"1	c #F1F9F9",
"2	c #F2FAFA",
"3	c #F4FAFA",
"4	c #F5FBFB",
"5	c #F6FBFB",
"6	c #F8FCFC",
"7	c #F7FBFB",
"8	c #123232",
"9	c #FAFDFD",
"0	c #042323",
"                ",
"                ",
"         .      ",
"         +@     ",
"    #$%&*=-;    ",
"   >,')!~-{]^   ",
"  ///)!~-{](_:  ",
"  $')!~-{](_<[} ",
"  %)!~-{](_<[}  ",
"  &!~-{](_<[}   ",
"  |1234567[}    ",
"  88888889}8    ",
"        0}0     ",
"        00      ",
"                ",
"                "};
