/* XPM */
static char * PrevFile_xpm[] = {
"16 16 38 1",
" 	c None",
".	c #F4FFFF",
"+	c #F8FFFF",
"@	c #F0F9F9",
"#	c #F9FFFF",
"$	c #EEF5F5",
"%	c #EFF7F7",
"&	c #ECF7F7",
"*	c #E7F5F5",
"=	c #E3F3F3",
"-	c #B1C2C2",
";	c #FBFFFF",
">	c #F2F7F7",
",	c #F0F6F6",
"'	c #ECF4F4",
")	c #E9F2F2",
"!	c #E2EEEE",
"~	c #DCEAEA",
"{	c #A5B6B6",
"]	c #FFFFFF",
"^	c #FCFFFF",
"/	c #F5F9F9",
"(	c #F4F8F8",
"_	c #93A4A4",
":	c #FDFFFF",
"<	c #F9FBFB",
"[	c #F7FAFA",
"}	c #E3F4F4",
"|	c #F8FCFC",
"1	c #F7FCFC",
"2	c #F6FBFB",
"3	c #F4FAFA",
"4	c #F3FAFA",
"5	c #F2F9F9",
"6	c #F3FCFC",
"7	c #123232",
"8	c #FBFDFD",
"9	c #042323",
"                ",
"                ",
"      .         ",
"     +@         ",
"    #$%@&*=-    ",
"   ;>,$')!~{]   ",
"  ^/(>,$')!___  ",
" :<[/(>,$')!~}  ",
"  :<[/(>,$')!*  ",
"   :<[/(>,$')&  ",
"    :<||123456  ",
"    7:87777777  ",
"     9:9        ",
"      99        ",
"                ",
"                "};
