/* XPM */
static char * PrevChange_xpm[] = {
"16 16 55 1",
" 	c None",
".	c #BADCF7",
"+	c #8CC5F2",
"@	c #B9DBF6",
"#	c #63AEEA",
"$	c #B7D8F3",
"%	c #60AAE6",
"&	c #98E4FF",
"*	c #B5D6F1",
"=	c #5CA5E1",
"-	c #95E1FE",
";	c #88D4FB",
">	c #B3D3EE",
",	c #589FDB",
"'	c #91DDFD",
")	c #6DB9F2",
"!	c #7ECAF7",
"~	c #B1D0EC",
"{	c #5399D5",
"]	c #8CD8FB",
"^	c #66B2EE",
"/	c #76C2F4",
"(	c #4E92CE",
"_	c #89D5FA",
":	c #61ADE9",
"<	c #57A3DF",
"[	c #4D99D5",
"}	c #5DA9DC",
"|	c #ADCBE6",
"1	c #498BC7",
"2	c #6EBDE9",
"3	c #4092CF",
"4	c #52A3D9",
"5	c #ABC8E3",
"6	c #4585C1",
"7	c #52B9EC",
"8	c #299EE0",
"9	c #3AA8E5",
"0	c #A9C6E1",
"a	c #407FBB",
"b	c #30BAF7",
"c	c #1DB1F6",
"d	c #A7C3DE",
"e	c #3C79B5",
"f	c #16BAFF",
"g	c #A5B9CE",
"h	c #3875B1",
"i	c #E2E2E2",
"j	c #DBDBDB",
"k	c #D3D3D3",
"l	c #8DA3B9",
"m	c #5A7FA4",
"n	c #E6E6E6",
"o	c #E9E9E9",
"p	c #E5E5E5",
"                ",
"         .+     ",
"        @##     ",
"       $%&%     ",
"      *=-;=     ",
"     >,')!,     ",
"    ~{]^^/{     ",
"    (_:<[}(     ",
"    |123341     ",
"     567896     ",
"      0abca     ",
"       defe     ",
"        ghh     ",
"      ijklmn    ",
"        onp     ",
"                "};
