/* XPM */
static char * PutChange_xpm[] = {
"16 16 61 1",
" 	c None",
".	c #F5FCFC",
"+	c #EFF9F9",
"@	c #EAF6F6",
"#	c #E5F4F4",
"$	c #E2F3F3",
"%	c #E1F2F2",
"&	c #B1C2C2",
"*	c #F3FAFA",
"=	c #ECF4F4",
"-	c #E7F1F1",
";	c #DFECEC",
">	c #D9E8E8",
",	c #D5E6E6",
"'	c #D4E5E5",
")	c #A5B6B6",
"!	c #FFFFFF",
"~	c #F4FAFA",
"{	c #EEF5F5",
"]	c #93A4A4",
"^	c #F6FBFB",
"/	c #F0F6F6",
"(	c #F7FCFC",
"_	c #F2F7F7",
":	c #F8FCFC",
"<	c #F4F8F8",
"[	c #B4C4C4",
"}	c #A8B9B9",
"|	c #FAFDFD",
"1	c #F6FAFA",
"2	c #9FB0B0",
"3	c #FBFDFD",
"4	c #F8FBFB",
"5	c #E5ECEC",
"6	c #D1DBDB",
"7	c #B8C5C5",
"8	c #A2B2B2",
"9	c #97A8A8",
"0	c #E5E9E9",
"a	c #FCFEFE",
"b	c #F9FCFC",
"c	c #F5F9F9",
"d	c #F7FAFA",
"e	c #FDFEFE",
"f	c #E6ECEC",
"g	c #CED7D7",
"h	c #B0BDBD",
"i	c #95A5A5",
"j	c #879898",
"k	c #E2E6E6",
"l	c #173939",
"m	c #FEFFFF",
"n	c #FCFDFD",
"o	c #809191",
"p	c #0F2F2F",
"q	c #FEFEFE",
"r	c #99A7A7",
"s	c #7A8B8B",
"t	c #173838",
"u	c #F9FEFE",
"v	c #0B2A2A",
"                ",
"   .+@#$%%&     ",
"   *=-;>,')!    ",
"   ~{=-;>,]]]   ",
"   ^/{=-;>,'%   ",
"   (_/{=-;>,%   ",
"   :<_/{=-;[}   ",
"   |1<_/{=-2!   ",
"   341<567890!  ",
"   ab41cdbe!!!! ",
"   e3b4fghijk!l ",
"   mn3b41<_o!p  ",
"   !qn3b41<rs   ",
"   !!qn3b41<^   ",
"  t!!!mea3|:ut  ",
"   vvvvvvvvvv   "};
