/* XPM */
static char * QuitDiff_xpm[] = {
"16 16 77 1",
" 	c None",
".	c #6486EC",
"+	c #6484E3",
"@	c #A4B7EF",
"#	c #DDE4FA",
"$	c #F7F9FE",
"%	c #617FD7",
"&	c #DCE3F6",
"*	c #FCFCFC",
"=	c #FBFBFB",
"-	c #4767C5",
";	c #D9DFF2",
">	c #F8F8F8",
",	c #3B5DC1",
"'	c #F7F7F7",
")	c #2D4FB3",
"!	c #8A9DD4",
"~	c #F5F5F5",
"{	c #F3F3F3",
"]	c #899CD4",
"^	c #2446AB",
"/	c #CDD5EA",
"(	c #F0F0F0",
"_	c #F4F4F4",
":	c #DADADB",
"<	c #D1D1D2",
"[	c #C0C7DC",
"}	c #2244AD",
"|	c #EDEFF4",
"1	c #EEEEEE",
"2	c #EAEAEA",
"3	c #E3E3E5",
"4	c #DCDCDE",
"5	c #D0D0D2",
"6	c #D7D8DF",
"7	c #2648B7",
"8	c #EDEEF4",
"9	c #E5E5E7",
"0	c #D6D6DA",
"a	c #D4D4D8",
"b	c #D6D8E1",
"c	c #2E50C5",
"d	c #C8D0EA",
"e	c #DADAE1",
"f	c #D9D9E0",
"g	c #BDC4E1",
"h	c #3759D6",
"i	c #8A9DE5",
"j	c #E2E2EA",
"k	c #E7E7EE",
"l	c #E0E0E8",
"m	c #8497E1",
"n	c #4A6AE6",
"o	c #CDD3F3",
"p	c #ECECF4",
"q	c #3F61E5",
"r	c #EBEBF4",
"s	c #E4E4EF",
"t	c #C7CDEF",
"u	c #5976EF",
"v	c #CED4F7",
"w	c #EFEFFA",
"x	c #E8E8F7",
"y	c #EFEFF9",
"z	c #CAD1F6",
"A	c #5876EF",
"B	c #4F6FEF",
"C	c #8FA2F5",
"D	c #CAD1FA",
"E	c #E5E7FC",
"F	c #E5E6FC",
"G	c #C9D1F9",
"H	c #8EA1F4",
"I	c #4E6EEF",
"J	c #334CB2",
"K	c #4364E9",
"L	c #4466EE",
"                ",
"     ......     ",
"    +@#$$#@+    ",
"   %&*====*&%   ",
"  -;>,'''',>;-  ",
" )!~))){{)))~]) ",
" ^/(_^^^^^^:<[^ ",
" }|123}}}}4556} ",
" 7890a7777aaab7 ",
" cdefccccccffgc ",
" hijhhhkkhhhlmh ",
"  nopqrssrqptn  ",
"   uvwxxxxyzA   ",
"    BCDEFGHI    ",
"     JKLLKJ     ",
"                "};
