/* XPM */
static char * SyncFiles_xpm[] = {
"16 16 64 1",
" 	c None",
".	c #F5FCFC",
"+	c #EFF9F9",
"@	c #EAF6F6",
"#	c #E5F4F4",
"$	c #E2F3F3",
"%	c #E1F2F2",
"&	c #B1C2C2",
"*	c #F3FAFA",
"=	c #ECF4F4",
"-	c #E7F1F1",
";	c #DFECEC",
">	c #D9E8E8",
",	c #D5E6E6",
"'	c #D4E5E5",
")	c #A5B6B6",
"!	c #FFFFFF",
"~	c #F4FAFA",
"{	c #EEF5F5",
"]	c #93A4A4",
"^	c #F6FBFB",
"/	c #F0F6F6",
"(	c #F7FCFC",
"_	c #F2F7F7",
":	c #F8FCFC",
"<	c #F4F8F8",
"[	c #FAFDFD",
"}	c #F6FAFA",
"|	c #FBFDFD",
"1	c #F8FBFB",
"2	c #EAF7F7",
"3	c #FCFEFE",
"4	c #F9FCFC",
"5	c #84C0ED",
"6	c #3D7EA2",
"7	c #FDFEFE",
"8	c #5DA9E5",
"9	c #388ED2",
"0	c #FEFFFF",
"a	c #FCFDFD",
"b	c #7EB4E1",
"c	c #569DD9",
"d	c #559DD9",
"e	c #569EDA",
"f	c #97E5FF",
"g	c #2E87D2",
"h	c #FEFEFE",
"i	c #4E93CE",
"j	c #92E3FF",
"k	c #6AD5FF",
"l	c #5DD1FF",
"m	c #73D8FF",
"n	c #2379C3",
"o	c #73A5D2",
"p	c #4487C3",
"q	c #4486C2",
"r	c #38C5FF",
"s	c #186AB5",
"t	c #173838",
"u	c #3D7CB8",
"v	c #0E589A",
"w	c #0B2A2A",
"x	c #074375",
"y	c #063254",
"                ",
"   .+@#$%%&     ",
"   *=-;>,')!    ",
"   ~{=-;>,]]]   ",
"   ^/{=-;>,'%   ",
"   (_/{=-;>,%   ",
"   :<_/{=-;>$   ",
"   [}<_/{=-;#   ",
"   |1}<_/{=-2   ",
"   341}<_/{=56  ",
"   7|41}<_/{89  ",
"   0a|41bcddefg ",
"   !ha|4ijklllmn",
"   !!ha|oppqprs ",
"  t!!!073|[:uv  ",
"   wwwwwwwwwxy  "};
