/* XPM */
static char * UpdateDiff_xpm[] = {
"16 16 79 1",
" 	c None",
".	c #409EE9",
"+	c #3D9AE5",
"@	c #429EE7",
"#	c #67BDF2",
"$	c #83D2FA",
"%	c #91DCFE",
"&	c #43A0E7",
"*	c #3996E1",
"=	c #99E5FF",
"-	c #8DD7FB",
";	c #86D0FA",
">	c #87D2FB",
",	c #8AD5FC",
"'	c #88D3FB",
")	c #84CEFA",
"!	c #85CFFA",
"~	c #93DEFD",
"{	c #46A1E5",
"]	c #3490DB",
"^	c #8AD4F9",
"/	c #91DCFC",
"(	c #7AC2F2",
"_	c #55ABE6",
":	c #50A5E5",
"<	c #74BEF0",
"[	c #7DC4F4",
"}	c #91DBFC",
"|	c #3C96DE",
"1	c #3089D4",
"2	c #86CFF5",
"3	c #72B7EA",
"4	c #90DBFB",
"5	c #6AB3E8",
"6	c #78BEEE",
"7	c #5FB1E7",
"8	c #2A82CD",
"9	c #8ED8F9",
"0	c #82CAF2",
"a	c #4091D5",
"b	c #69ADE4",
"c	c #73BFEC",
"d	c #267BC6",
"e	c #257AC5",
"f	c #5EA5DF",
"g	c #76C0ED",
"h	c #1F73BE",
"i	c #53A2DD",
"j	c #6BB9E9",
"k	c #2D82C7",
"l	c #48A4E1",
"m	c #54A9E1",
"n	c #196BB6",
"o	c #45A7E3",
"p	c #1464AF",
"q	c #46A9E5",
"r	c #3AA8E8",
"s	c #338CCD",
"t	c #2AACF0",
"u	c #40ADE9",
"v	c #2981C3",
"w	c #0E5DA8",
"x	c #40AEE9",
"y	c #38B3F1",
"z	c #1264AD",
"A	c #21B2F7",
"B	c #18AEF6",
"C	c #23B3F7",
"D	c #31B9F9",
"E	c #0E63AD",
"F	c #0B7DC7",
"G	c #0CA0E9",
"H	c #0AB2FC",
"I	c #0B7EC8",
"J	c #0658A3",
"K	c #024990",
"L	c #024D98",
"M	c #024A93",
"N	c #02386E",
"                ",
" .    ....      ",
" +++@#$%%$#&    ",
" *=*-;>,')!~{   ",
" ]^/(^_]]:<[}|  ",
" 123411   1567  ",
" 8900=8    abc8 ",
" deeeeed   efge ",
"           hijh ",
"           klmn ",
"    op    pqrs  ",
"    tuvwwvxtyz  ",
"    ABCDDCBAE   ",
"     FGHHGIJ    ",
"      KLLMN     ",
"                "};
